solid
facet normal 0.0 0.0 1.0
 outer loop
  vertex 0.0 0.0 0.0
  vertex 0.3 0.0 0.0
  vertex 0.3 0.8 0.0
 endloop
endfacet
facet normal 0.0 0.0 1.0
 outer loop
  vertex 0.0 0.0 0.0
  vertex 0.3 0.8 0.0
  vertex 0.0 0.8 0.0
 endloop
endfacet
facet normal 0.0 0.0 -1.0
 outer loop
  vertex 0.0 0.0 0.3
  vertex 0.3 0.8 0.3
  vertex 0.3 0.0 0.3
 endloop
endfacet
facet normal 0.0 0.0 -1.0
 outer loop
  vertex 0.0 0.0 0.3
  vertex 0.0 0.8 0.3
  vertex 0.3 0.8 0.3
 endloop
endfacet
facet normal 0.0 1.0 0.0
 outer loop
  vertex 0.0 0.0 0.0
  vertex 0.3 0.0 0.3
  vertex 0.3 0.0 0.0
 endloop
endfacet
facet normal 0.0 1.0 0.0
 outer loop
  vertex 0.0 0.0 0.0
  vertex 0.0 0.0 0.3
  vertex 0.3 0.0 0.3
 endloop
endfacet
facet normal -1.0 0.0 0.0
 outer loop
  vertex 0.3 0.0 0.0
  vertex 0.3 0.8 0.3
  vertex 0.3 0.8 0.0
 endloop
endfacet
facet normal -1.0 0.0 0.0
 outer loop
  vertex 0.3 0.0 0.0
  vertex 0.3 0.0 0.3
  vertex 0.3 0.8 0.3
 endloop
endfacet
facet normal 0.0 -1.0 0.0
 outer loop
  vertex 0.3 0.8 0.0
  vertex 0.0 0.8 0.3
  vertex 0.0 0.8 0.0
 endloop
endfacet
facet normal 0.0 -1.0 0.0
 outer loop
  vertex 0.3 0.8 0.0
  vertex 0.3 0.8 0.3
  vertex 0.0 0.8 0.3
 endloop
endfacet
facet normal 1.0 0.0 0.0
 outer loop
  vertex 0.0 0.8 0.0
  vertex 0.0 0.0 0.3
  vertex 0.0 0.0 0.0
 endloop
endfacet
facet normal 1.0 0.0 -0.0
 outer loop
  vertex 0.0 0.8 0.0
  vertex 0.0 0.8 0.3
  vertex 0.0 0.0 0.3
 endloop
endfacet
endsolid
