v -0.02500000037 0.05127530172 -0.02122789994
v 0.9749999996 0.05127530172 -0.02122789994
l 1 2
v 0.02500000037 0.05127530172 -0.02122789994
v 0.02500000037 -0.872598534 0.3614692855
l 3 4
v 0.02500000037 0.04665590078 -0.01931440085
v -0.9749999996 0.04665590078 -0.01931440085
l 5 6
v -0.02500000037 0.04665590078 -0.01931440085
v -0.02500000037 0.9705297365 -0.4020115863
l 7 8
v -0.02500000037 0.05127530172 -0.02122789994
v -0.02500000037 0.4035175133 0.9146809762
l 9 10
v 0.02500000037 0.05255459994 -0.01782879978
v 0.02500000037 -0.2996876116 -0.9537376759
l 11 12
v -0.02500000037 0.05255459994 -0.01782879978
v -0.02500000037 0.3428521084 0.9391076436
l 13 14
v 0.02500000037 0.0536089018 -0.0143534001
v 0.02500000037 -0.2366886066 -0.9712898434
l 15 16
v -0.02500000037 0.0536089018 -0.0143534001
v -0.02500000037 0.2806811299 0.95952452
l 17 18
v 0.02500000037 0.05443359911 -0.01081639994
v 0.02500000037 -0.172638629 -0.98469432
l 19 20
v -0.02500000037 0.05443359911 -0.01081639994
v -0.02500000037 0.2173282588 0.9758270665
l 21 22
v 0.02500000037 0.05502520129 -0.007233100012
v 0.02500000037 -0.1078694584 -0.9938765664
l 23 24
v -0.02500000037 0.05502520129 -0.007233100012
v -0.02500000037 0.1530484622 0.9879510238
l 25 26
v 0.02500000037 0.05538120121 -0.003618800081
v 0.02500000037 -0.04264205975 -0.9988029239
l 27 28
v -0.02500000037 0.05538120121 -0.003618800081
v -0.02500000037 0.08809172533 0.9958460675
l 29 30
v 0.02500000037 0.05550000072 1.109999994e-05
v 0.02500000037 0.0227894766 -0.9994537676
l 31 32
v -0.02500000037 0.05550000072 1.109999994e-05
v -0.02500000037 0.02278857477 0.9994759381
l 33 34
v 0.02500000037 0.05538120121 0.0036408999
v 0.02500000037 0.08809262716 -0.9958239382
l 35 36
v -0.02500000037 0.05538120121 0.0036408999
v -0.02500000037 -0.04263937064 0.9988252886
l 37 38
v 0.02500000037 0.05502520129 0.007255299948
v 0.02500000037 0.1530457731 -0.9879290887
l 39 40
v -0.02500000037 0.05502520129 0.007255299948
v -0.02500000037 -0.1078694584 0.9938987664
l 41 42
v 0.02500000037 0.05443359911 0.01083859988
v 0.02500000037 0.2173282588 -0.9758048666
l 43 44
v -0.02500000037 0.05443359911 0.01083859988
v -0.02500000037 -0.1726446968 0.9847151051
l 45 46
v 0.02500000037 0.0536089018 0.01437550038
v 0.02500000037 0.2806871977 -0.9595010049
l 47 48
v -0.02500000037 0.0536089018 0.01437550038
v -0.02500000037 -0.2366809132 0.9713142776
l 49 50
v 0.02500000037 0.05255459994 0.01785100065
v 0.02500000037 0.342844415 -0.9390877765
l 51 52
v -0.02500000037 0.05255459994 0.01785100065
v -0.02500000037 -0.2996967418 0.9537564405
l 53 54
v -0.02500000037 0.05127530172 0.02125000022
v 0.9749999996 0.05127530172 0.02125000022
l 55 56
v 0.02500000037 0.05127530172 0.02125000022
v 0.02500000037 0.4035266434 -0.9146554396
l 57 58
v -0.02500000037 0.04665590078 0.01933659986
v 0.9749999996 0.04665590078 0.01933659986
l 59 60
v 0.02500000037 0.04665590078 0.01933659986
v 0.02500000037 0.9705367171 0.4020169328
l 61 62
v -0.02500000037 0.05127530172 0.02125000022
v -0.02500000037 -0.8726055146 -0.3614303327
l 63 64
v 0.02500000037 0.04782000184 0.01624380052
v 0.02500000037 -0.3044443117 0.952144358
l 65 66
v -0.02500000037 0.04665590078 0.01933659986
v -0.02500000037 0.3989202143 -0.9165639576
l 67 68
v 0.02500000037 0.04877920076 0.01308139972
v 0.02500000037 -0.241476416 0.9700305504
l 69 70
v -0.02500000037 0.04782000184 0.01624380052
v -0.02500000037 0.3380756186 -0.9407053501
l 71 72
v 0.02500000037 0.04952970147 0.009863100015
v 0.02500000037 -0.1775748207 0.9837334897
l 73 74
v -0.02500000037 0.04877920076 0.01308139972
v -0.02500000037 0.275883723 -0.96078899
l 75 76
v 0.02500000037 0.05006799847 0.006602600217
v 0.02500000037 -0.1128234399 0.9932465985
l 77 78
v -0.02500000037 0.04952970147 0.009863100015
v -0.02500000037 0.2124211399 -0.9767808982
l 79 80
v 0.02500000037 0.05039190128 0.003313899972
v 0.02500000037 -0.04762347477 0.9984988004
l 81 82
v -0.02500000037 0.05006799847 0.006602600217
v -0.02500000037 0.1480833745 -0.9885823002
l 83 84
v 0.02500000037 0.05050000176 1.109999994e-05
v 0.02500000037 0.01778756988 0.9994759052
l 85 86
v -0.02500000037 0.05039190128 0.003313899972
v -0.02500000037 0.08310433316 -0.9961509052
l 87 88
v 0.02500000037 0.05039190128 -0.00329179992
v 0.02500000037 0.08310334432 0.9961730376
l 89 90
v -0.02500000037 0.05050000176 1.109999994e-05
v -0.02500000037 0.01778855872 -0.9994537375
l 91 92
v 0.02500000037 0.05006799847 -0.006580499932
v 0.02500000037 0.1480833814 0.9886043998
l 93 94
v -0.02500000037 0.05039190128 -0.00329179992
v -0.02500000037 -0.04762348164 -0.9984766997
l 95 96
v 0.02500000037 0.04952970147 -0.00984099973
v 0.02500000037 0.2124211399 0.9768029985
l 97 98
v -0.02500000037 0.05006799847 -0.006580499932
v -0.02500000037 -0.1128234399 -0.9932244982
l 99 100
v 0.02500000037 0.04877920076 -0.01305930037
v 0.02500000037 0.2758836606 0.9608111039
l 101 102
v -0.02500000037 0.04952970147 -0.00984099973
v -0.02500000037 -0.1775747584 -0.983711404
l 103 104
v 0.02500000037 0.04782000184 -0.01622159965
v 0.02500000037 0.3380841511 0.9407249629
l 105 106
v -0.02500000037 0.04877920076 -0.01305930037
v -0.02500000037 -0.2414849485 -0.9700058629
l 107 108
v 0.02500000037 0.04665590078 -0.01931440085
v 0.02500000037 0.3989200285 0.9165862265
l 109 110
v -0.02500000037 0.04782000184 -0.01622159965
v -0.02500000037 -0.3044441259 -0.952122227
l 111 112
