v -0.02500000037 0.05127530172 -0.02122789994
v 0.02500000037 0.05127530172 -0.02122789994
l 1 2
v 0.02500000037 0.05127530172 -0.02122789994
v 0.02500000037 0.04665590078 -0.01931440085
l 3 4
v 0.02500000037 0.04665590078 -0.01931440085
v -0.02500000037 0.04665590078 -0.01931440085
l 5 6
v -0.02500000037 0.04665590078 -0.01931440085
v -0.02500000037 0.05127530172 -0.02122789994
l 7 8
v -0.02500000037 0.05127530172 -0.02122789994
v -0.02500000037 0.05255459994 -0.01782879978
l 9 10
v 0.02500000037 0.05255459994 -0.01782879978
v 0.02500000037 0.05127530172 -0.02122789994
l 11 12
v -0.02500000037 0.05255459994 -0.01782879978
v -0.02500000037 0.0536089018 -0.0143534001
l 13 14
v 0.02500000037 0.0536089018 -0.0143534001
v 0.02500000037 0.05255459994 -0.01782879978
l 15 16
v -0.02500000037 0.0536089018 -0.0143534001
v -0.02500000037 0.05443359911 -0.01081639994
l 17 18
v 0.02500000037 0.05443359911 -0.01081639994
v 0.02500000037 0.0536089018 -0.0143534001
l 19 20
v -0.02500000037 0.05443359911 -0.01081639994
v -0.02500000037 0.05502520129 -0.007233100012
l 21 22
v 0.02500000037 0.05502520129 -0.007233100012
v 0.02500000037 0.05443359911 -0.01081639994
l 23 24
v -0.02500000037 0.05502520129 -0.007233100012
v -0.02500000037 0.05538120121 -0.003618800081
l 25 26
v 0.02500000037 0.05538120121 -0.003618800081
v 0.02500000037 0.05502520129 -0.007233100012
l 27 28
v -0.02500000037 0.05538120121 -0.003618800081
v -0.02500000037 0.05550000072 1.109999994e-05
l 29 30
v 0.02500000037 0.05550000072 1.109999994e-05
v 0.02500000037 0.05538120121 -0.003618800081
l 31 32
v -0.02500000037 0.05550000072 1.109999994e-05
v -0.02500000037 0.05538120121 0.0036408999
l 33 34
v 0.02500000037 0.05538120121 0.0036408999
v 0.02500000037 0.05550000072 1.109999994e-05
l 35 36
v -0.02500000037 0.05538120121 0.0036408999
v -0.02500000037 0.05502520129 0.007255299948
l 37 38
v 0.02500000037 0.05502520129 0.007255299948
v 0.02500000037 0.05538120121 0.0036408999
l 39 40
v -0.02500000037 0.05502520129 0.007255299948
v -0.02500000037 0.05443359911 0.01083859988
l 41 42
v 0.02500000037 0.05443359911 0.01083859988
v 0.02500000037 0.05502520129 0.007255299948
l 43 44
v -0.02500000037 0.05443359911 0.01083859988
v -0.02500000037 0.0536089018 0.01437550038
l 45 46
v 0.02500000037 0.0536089018 0.01437550038
v 0.02500000037 0.05443359911 0.01083859988
l 47 48
v -0.02500000037 0.0536089018 0.01437550038
v -0.02500000037 0.05255459994 0.01785100065
l 49 50
v 0.02500000037 0.05255459994 0.01785100065
v 0.02500000037 0.0536089018 0.01437550038
l 51 52
v -0.02500000037 0.05255459994 0.01785100065
v -0.02500000037 0.05127530172 0.02125000022
l 53 54
v -0.02500000037 0.05127530172 0.02125000022
v 0.02500000037 0.05127530172 0.02125000022
l 55 56
v 0.02500000037 0.05127530172 0.02125000022
v 0.02500000037 0.05255459994 0.01785100065
l 57 58
v -0.02500000037 0.04665590078 0.01933659986
v 0.02500000037 0.04665590078 0.01933659986
l 59 60
v 0.02500000037 0.04665590078 0.01933659986
v 0.02500000037 0.05127530172 0.02125000022
l 61 62
v -0.02500000037 0.05127530172 0.02125000022
v -0.02500000037 0.04665590078 0.01933659986
l 63 64
v 0.02500000037 0.04782000184 0.01624380052
v 0.02500000037 0.04665590078 0.01933659986
l 65 66
v -0.02500000037 0.04665590078 0.01933659986
v -0.02500000037 0.04782000184 0.01624380052
l 67 68
v 0.02500000037 0.04877920076 0.01308139972
v 0.02500000037 0.04782000184 0.01624380052
l 69 70
v -0.02500000037 0.04782000184 0.01624380052
v -0.02500000037 0.04877920076 0.01308139972
l 71 72
v 0.02500000037 0.04952970147 0.009863100015
v 0.02500000037 0.04877920076 0.01308139972
l 73 74
v -0.02500000037 0.04877920076 0.01308139972
v -0.02500000037 0.04952970147 0.009863100015
l 75 76
v 0.02500000037 0.05006799847 0.006602600217
v 0.02500000037 0.04952970147 0.009863100015
l 77 78
v -0.02500000037 0.04952970147 0.009863100015
v -0.02500000037 0.05006799847 0.006602600217
l 79 80
v 0.02500000037 0.05039190128 0.003313899972
v 0.02500000037 0.05006799847 0.006602600217
l 81 82
v -0.02500000037 0.05006799847 0.006602600217
v -0.02500000037 0.05039190128 0.003313899972
l 83 84
v 0.02500000037 0.05050000176 1.109999994e-05
v 0.02500000037 0.05039190128 0.003313899972
l 85 86
v -0.02500000037 0.05039190128 0.003313899972
v -0.02500000037 0.05050000176 1.109999994e-05
l 87 88
v 0.02500000037 0.05039190128 -0.00329179992
v 0.02500000037 0.05050000176 1.109999994e-05
l 89 90
v -0.02500000037 0.05050000176 1.109999994e-05
v -0.02500000037 0.05039190128 -0.00329179992
l 91 92
v 0.02500000037 0.05006799847 -0.006580499932
v 0.02500000037 0.05039190128 -0.00329179992
l 93 94
v -0.02500000037 0.05039190128 -0.00329179992
v -0.02500000037 0.05006799847 -0.006580499932
l 95 96
v 0.02500000037 0.04952970147 -0.00984099973
v 0.02500000037 0.05006799847 -0.006580499932
l 97 98
v -0.02500000037 0.05006799847 -0.006580499932
v -0.02500000037 0.04952970147 -0.00984099973
l 99 100
v 0.02500000037 0.04877920076 -0.01305930037
v 0.02500000037 0.04952970147 -0.00984099973
l 101 102
v -0.02500000037 0.04952970147 -0.00984099973
v -0.02500000037 0.04877920076 -0.01305930037
l 103 104
v 0.02500000037 0.04782000184 -0.01622159965
v 0.02500000037 0.04877920076 -0.01305930037
l 105 106
v -0.02500000037 0.04877920076 -0.01305930037
v -0.02500000037 0.04782000184 -0.01622159965
l 107 108
v 0.02500000037 0.04665590078 -0.01931440085
v 0.02500000037 0.04782000184 -0.01622159965
l 109 110
v -0.02500000037 0.04782000184 -0.01622159965
v -0.02500000037 0.04665590078 -0.01931440085
l 111 112
