# Wavefront OBJ file written 2026-04-01T18:09:17
o halfPipe_edgeMesh

# points : 52
# lines  : 56

# <points count="52">
v 0.02500000037 0.05127530172 -0.02122789994
v 0.02500000037 0.04665590078 -0.01931440085
v -0.02500000037 0.05127530172 -0.02122789994
v -0.02500000037 0.04665590078 -0.01931440085
v -0.02500000037 0.05127530172 0.02125000022
v 0.02500000037 0.05127530172 0.02125000022
v 0.02500000037 0.04665590078 0.01933659986
v -0.02500000037 0.04665590078 0.01933659986
v -0.02500000037 0.05255459994 -0.01782879978
v 0.02500000037 0.05255459994 -0.01782879978
v -0.02500000037 0.0536089018 -0.0143534001
v 0.02500000037 0.0536089018 -0.0143534001
v -0.02500000037 0.05443359911 -0.01081639994
v 0.02500000037 0.05443359911 -0.01081639994
v -0.02500000037 0.05502520129 -0.007233100012
v 0.02500000037 0.05502520129 -0.007233100012
v -0.02500000037 0.05538120121 -0.003618800081
v 0.02500000037 0.05538120121 -0.003618800081
v -0.02500000037 0.05550000072 1.109999994e-05
v 0.02500000037 0.05550000072 1.109999994e-05
v -0.02500000037 0.05538120121 0.0036408999
v 0.02500000037 0.05538120121 0.0036408999
v -0.02500000037 0.05502520129 0.007255299948
v 0.02500000037 0.05502520129 0.007255299948
v -0.02500000037 0.05443359911 0.01083859988
v 0.02500000037 0.05443359911 0.01083859988
v -0.02500000037 0.0536089018 0.01437550038
v 0.02500000037 0.0536089018 0.01437550038
v -0.02500000037 0.05255459994 0.01785100065
v 0.02500000037 0.05255459994 0.01785100065
v 0.02500000037 0.04782000184 0.01624380052
v -0.02500000037 0.04782000184 0.01624380052
v 0.02500000037 0.04877920076 0.01308139972
v -0.02500000037 0.04877920076 0.01308139972
v 0.02500000037 0.04952970147 0.009863100015
v -0.02500000037 0.04952970147 0.009863100015
v 0.02500000037 0.05006799847 0.006602600217
v -0.02500000037 0.05006799847 0.006602600217
v 0.02500000037 0.05039190128 0.003313899972
v -0.02500000037 0.05039190128 0.003313899972
v 0.02500000037 0.05050000176 1.109999994e-05
v -0.02500000037 0.05050000176 1.109999994e-05
v 0.02500000037 0.05039190128 -0.00329179992
v -0.02500000037 0.05039190128 -0.00329179992
v 0.02500000037 0.05006799847 -0.006580499932
v -0.02500000037 0.05006799847 -0.006580499932
v 0.02500000037 0.04952970147 -0.00984099973
v -0.02500000037 0.04952970147 -0.00984099973
v 0.02500000037 0.04877920076 -0.01305930037
v -0.02500000037 0.04877920076 -0.01305930037
v 0.02500000037 0.04782000184 -0.01622159965
v -0.02500000037 0.04782000184 -0.01622159965
# </points>

# <edges count="56">
l 3 1
l 1 2
l 2 4
l 4 3
l 3 9
l 10 1
l 9 11
l 12 10
l 11 13
l 14 12
l 13 15
l 16 14
l 15 17
l 18 16
l 17 19
l 20 18
l 19 21
l 22 20
l 21 23
l 24 22
l 23 25
l 26 24
l 25 27
l 28 26
l 27 29
l 30 28
l 29 5
l 5 6
l 6 30
l 8 7
l 7 6
l 5 8
l 31 7
l 8 32
l 33 31
l 32 34
l 35 33
l 34 36
l 37 35
l 36 38
l 39 37
l 38 40
l 41 39
l 40 42
l 43 41
l 42 44
l 45 43
l 44 46
l 47 45
l 46 48
l 49 47
l 48 50
l 51 49
l 50 52
l 2 51
l 52 4
# </edges>
