solid 45degPipe
 facet normal -0 -0.382697 -0.923874
  outer loop
   vertex 0.025 0.0512753 -0.0212279
   vertex 0.025 0.0466559 -0.0193144
   vertex -0.025 0.0512753 -0.0212279
  endloop
 endfacet
 facet normal 0 -0.382697 -0.923874
  outer loop
   vertex -0.025 0.0512753 -0.0212279
   vertex 0.025 0.0466559 -0.0193144
   vertex -0.025 0.0466559 -0.0193144
  endloop
 endfacet
 facet normal 0 0.935909 -0.352242
  outer loop
   vertex 0.025 0.0512753 -0.0212279
   vertex -0.025 0.0512753 -0.0212279
   vertex -0.025 0.0525546 -0.0178288
  endloop
 endfacet
 facet normal 0 0.935909 -0.352242
  outer loop
   vertex 0.025 0.0512753 -0.0212279
   vertex -0.025 0.0525546 -0.0178288
   vertex 0.025 0.0525546 -0.0178288
  endloop
 endfacet
 facet normal 0 0.956936 -0.290298
  outer loop
   vertex 0.025 0.0525546 -0.0178288
   vertex -0.025 0.0525546 -0.0178288
   vertex -0.025 0.0536089 -0.0143534
  endloop
 endfacet
 facet normal 0 0.956936 -0.290298
  outer loop
   vertex 0.025 0.0525546 -0.0178288
   vertex -0.025 0.0536089 -0.0143534
   vertex 0.025 0.0536089 -0.0143534
  endloop
 endfacet
 facet normal 0 0.973878 -0.227073
  outer loop
   vertex 0.025 0.0536089 -0.0143534
   vertex -0.025 0.0536089 -0.0143534
   vertex -0.025 0.0544336 -0.0108164
  endloop
 endfacet
 facet normal 0 0.973878 -0.227073
  outer loop
   vertex 0.025 0.0536089 -0.0143534
   vertex -0.025 0.0544336 -0.0108164
   vertex 0.025 0.0544336 -0.0108164
  endloop
 endfacet
 facet normal 0 0.986644 -0.162894
  outer loop
   vertex 0.025 0.0544336 -0.0108164
   vertex -0.025 0.0544336 -0.0108164
   vertex -0.025 0.0550252 -0.0072331
  endloop
 endfacet
 facet normal 0 0.986644 -0.162894
  outer loop
   vertex 0.025 0.0544336 -0.0108164
   vertex -0.025 0.0550252 -0.0072331
   vertex 0.025 0.0550252 -0.0072331
  endloop
 endfacet
 facet normal 0 0.995184 -0.0980233
  outer loop
   vertex 0.025 0.0550252 -0.0072331
   vertex -0.025 0.0550252 -0.0072331
   vertex -0.025 0.0553812 -0.0036188
  endloop
 endfacet
 facet normal 0 0.995184 -0.0980233
  outer loop
   vertex 0.025 0.0550252 -0.0072331
   vertex -0.025 0.0553812 -0.0036188
   vertex 0.025 0.0553812 -0.0036188
  endloop
 endfacet
 facet normal 0 0.999465 -0.0327105
  outer loop
   vertex 0.025 0.0553812 -0.0036188
   vertex -0.025 0.0553812 -0.0036188
   vertex -0.025 0.0555 1.11e-05
  endloop
 endfacet
 facet normal 0 0.999465 -0.0327105
  outer loop
   vertex 0.025 0.0553812 -0.0036188
   vertex -0.025 0.0555 1.11e-05
   vertex 0.025 0.0555 1.11e-05
  endloop
 endfacet
 facet normal 0 0.999465 0.0327114
  outer loop
   vertex 0.025 0.0555 1.11e-05
   vertex -0.025 0.0555 1.11e-05
   vertex -0.025 0.0553812 0.0036409
  endloop
 endfacet
 facet normal 0 0.999465 0.0327114
  outer loop
   vertex 0.025 0.0555 1.11e-05
   vertex -0.025 0.0553812 0.0036409
   vertex 0.025 0.0553812 0.0036409
  endloop
 endfacet
 facet normal 0 0.995184 0.0980206
  outer loop
   vertex 0.025 0.0553812 0.0036409
   vertex -0.025 0.0553812 0.0036409
   vertex -0.025 0.0550252 0.0072553
  endloop
 endfacet
 facet normal 0 0.995184 0.0980206
  outer loop
   vertex 0.025 0.0553812 0.0036409
   vertex -0.025 0.0550252 0.0072553
   vertex 0.025 0.0550252 0.0072553
  endloop
 endfacet
 facet normal 0 0.986644 0.162894
  outer loop
   vertex 0.025 0.0550252 0.0072553
   vertex -0.025 0.0550252 0.0072553
   vertex -0.025 0.0544336 0.0108386
  endloop
 endfacet
 facet normal 0 0.986644 0.162894
  outer loop
   vertex 0.025 0.0550252 0.0072553
   vertex -0.025 0.0544336 0.0108386
   vertex 0.025 0.0544336 0.0108386
  endloop
 endfacet
 facet normal 0 0.973876 0.227079
  outer loop
   vertex 0.025 0.0544336 0.0108386
   vertex -0.025 0.0544336 0.0108386
   vertex -0.025 0.0536089 0.0143755
  endloop
 endfacet
 facet normal 0 0.973876 0.227079
  outer loop
   vertex 0.025 0.0544336 0.0108386
   vertex -0.025 0.0536089 0.0143755
   vertex 0.025 0.0536089 0.0143755
  endloop
 endfacet
 facet normal 0 0.956939 0.29029
  outer loop
   vertex 0.025 0.0536089 0.0143755
   vertex -0.025 0.0536089 0.0143755
   vertex -0.025 0.0525546 0.017851
  endloop
 endfacet
 facet normal 0 0.956939 0.29029
  outer loop
   vertex 0.025 0.0536089 0.0143755
   vertex -0.025 0.0525546 0.017851
   vertex 0.025 0.0525546 0.017851
  endloop
 endfacet
 facet normal 0 0.935905 0.352251
  outer loop
   vertex 0.025 0.0525546 0.017851
   vertex -0.025 0.0525546 0.017851
   vertex -0.025 0.0512753 0.02125
  endloop
 endfacet
 facet normal 0 0.935905 0.352251
  outer loop
   vertex 0.025 0.0525546 0.017851
   vertex -0.025 0.0512753 0.02125
   vertex 0.025 0.0512753 0.02125
  endloop
 endfacet
 facet normal 0 -0.38268 0.923881
  outer loop
   vertex 0.025 0.0466559 0.0193366
   vertex 0.025 0.0512753 0.02125
   vertex -0.025 0.0466559 0.0193366
  endloop
 endfacet
 facet normal 0 -0.38268 0.923881
  outer loop
   vertex -0.025 0.0466559 0.0193366
   vertex 0.025 0.0512753 0.02125
   vertex -0.025 0.0512753 0.02125
  endloop
 endfacet
 facet normal -0 -0.935901 -0.352264
  outer loop
   vertex 0.025 0.0466559 0.0193366
   vertex -0.025 0.0466559 0.0193366
   vertex 0.025 0.04782 0.0162438
  endloop
 endfacet
 facet normal -0 -0.935901 -0.352264
  outer loop
   vertex 0.025 0.04782 0.0162438
   vertex -0.025 0.0466559 0.0193366
   vertex -0.025 0.04782 0.0162438
  endloop
 endfacet
 facet normal -0 -0.956949 -0.290256
  outer loop
   vertex 0.025 0.04782 0.0162438
   vertex -0.025 0.04782 0.0162438
   vertex 0.025 0.0487792 0.0130814
  endloop
 endfacet
 facet normal -0 -0.956949 -0.290256
  outer loop
   vertex 0.025 0.0487792 0.0130814
   vertex -0.025 0.04782 0.0162438
   vertex -0.025 0.0487792 0.0130814
  endloop
 endfacet
 facet normal -0 -0.97387 -0.227105
  outer loop
   vertex 0.025 0.0487792 0.0130814
   vertex -0.025 0.0487792 0.0130814
   vertex 0.025 0.0495297 0.0098631
  endloop
 endfacet
 facet normal -0 -0.97387 -0.227105
  outer loop
   vertex 0.025 0.0495297 0.0098631
   vertex -0.025 0.0487792 0.0130814
   vertex -0.025 0.0495297 0.0098631
  endloop
 endfacet
 facet normal -0 -0.986644 -0.162893
  outer loop
   vertex 0.025 0.0495297 0.0098631
   vertex -0.025 0.0495297 0.0098631
   vertex 0.025 0.050068 0.0066026
  endloop
 endfacet
 facet normal -0 -0.986644 -0.162893
  outer loop
   vertex 0.025 0.050068 0.0066026
   vertex -0.025 0.0495297 0.0098631
   vertex -0.025 0.050068 0.0066026
  endloop
 endfacet
 facet normal -0 -0.995185 -0.0980143
  outer loop
   vertex 0.025 0.050068 0.0066026
   vertex -0.025 0.050068 0.0066026
   vertex 0.025 0.0503919 0.0033139
  endloop
 endfacet
 facet normal -0 -0.995185 -0.0980143
  outer loop
   vertex 0.025 0.0503919 0.0033139
   vertex -0.025 0.050068 0.0066026
   vertex -0.025 0.0503919 0.0033139
  endloop
 endfacet
 facet normal -0 -0.999465 -0.0327124
  outer loop
   vertex 0.025 0.0503919 0.0033139
   vertex -0.025 0.0503919 0.0033139
   vertex 0.025 0.0505 1.11e-05
  endloop
 endfacet
 facet normal -0 -0.999465 -0.0327124
  outer loop
   vertex 0.025 0.0505 1.11e-05
   vertex -0.025 0.0503919 0.0033139
   vertex -0.025 0.0505 1.11e-05
  endloop
 endfacet
 facet normal 0 -0.999465 0.0327114
  outer loop
   vertex 0.025 0.0505 1.11e-05
   vertex -0.025 0.0505 1.11e-05
   vertex 0.025 0.0503919 -0.0032918
  endloop
 endfacet
 facet normal 0 -0.999465 0.0327114
  outer loop
   vertex 0.025 0.0503919 -0.0032918
   vertex -0.025 0.0505 1.11e-05
   vertex -0.025 0.0503919 -0.0032918
  endloop
 endfacet
 facet normal 0 -0.995185 0.0980143
  outer loop
   vertex 0.025 0.0503919 -0.0032918
   vertex -0.025 0.0503919 -0.0032918
   vertex 0.025 0.050068 -0.0065805
  endloop
 endfacet
 facet normal 0 -0.995185 0.0980143
  outer loop
   vertex 0.025 0.050068 -0.0065805
   vertex -0.025 0.0503919 -0.0032918
   vertex -0.025 0.050068 -0.0065805
  endloop
 endfacet
 facet normal 0 -0.986644 0.162893
  outer loop
   vertex 0.025 0.050068 -0.0065805
   vertex -0.025 0.050068 -0.0065805
   vertex 0.025 0.0495297 -0.009841
  endloop
 endfacet
 facet normal 0 -0.986644 0.162893
  outer loop
   vertex 0.025 0.0495297 -0.009841
   vertex -0.025 0.050068 -0.0065805
   vertex -0.025 0.0495297 -0.009841
  endloop
 endfacet
 facet normal 0 -0.97387 0.227104
  outer loop
   vertex 0.025 0.0495297 -0.009841
   vertex -0.025 0.0495297 -0.009841
   vertex 0.025 0.0487792 -0.0130593
  endloop
 endfacet
 facet normal 0 -0.97387 0.227104
  outer loop
   vertex 0.025 0.0487792 -0.0130593
   vertex -0.025 0.0495297 -0.009841
   vertex -0.025 0.0487792 -0.0130593
  endloop
 endfacet
 facet normal 0 -0.956947 0.290264
  outer loop
   vertex 0.025 0.0487792 -0.0130593
   vertex -0.025 0.0487792 -0.0130593
   vertex 0.025 0.04782 -0.0162216
  endloop
 endfacet
 facet normal 0 -0.956947 0.290264
  outer loop
   vertex 0.025 0.04782 -0.0162216
   vertex -0.025 0.0487792 -0.0130593
   vertex -0.025 0.04782 -0.0162216
  endloop
 endfacet
 facet normal 0 -0.935901 0.352264
  outer loop
   vertex 0.025 0.04782 -0.0162216
   vertex -0.025 0.04782 -0.0162216
   vertex 0.025 0.0466559 -0.0193144
  endloop
 endfacet
 facet normal 0 -0.935901 0.352264
  outer loop
   vertex 0.025 0.0466559 -0.0193144
   vertex -0.025 0.04782 -0.0162216
   vertex -0.025 0.0466559 -0.0193144
  endloop
 endfacet
 facet normal 1 -0 0
  outer loop
   vertex 0.025 0.0466559 -0.0193144
   vertex 0.025 0.0512753 -0.0212279
   vertex 0.025 0.04782 -0.0162216
  endloop
 endfacet
 facet normal 1 0 0
  outer loop
   vertex 0.025 0.04782 -0.0162216
   vertex 0.025 0.0512753 -0.0212279
   vertex 0.025 0.0525546 -0.0178288
  endloop
 endfacet
 facet normal 1 -0 0
  outer loop
   vertex 0.025 0.04782 -0.0162216
   vertex 0.025 0.0525546 -0.0178288
   vertex 0.025 0.0487792 -0.0130593
  endloop
 endfacet
 facet normal 1 0 0
  outer loop
   vertex 0.025 0.0487792 -0.0130593
   vertex 0.025 0.0525546 -0.0178288
   vertex 0.025 0.0536089 -0.0143534
  endloop
 endfacet
 facet normal 1 -0 0
  outer loop
   vertex 0.025 0.0487792 -0.0130593
   vertex 0.025 0.0536089 -0.0143534
   vertex 0.025 0.0495297 -0.009841
  endloop
 endfacet
 facet normal 1 0 0
  outer loop
   vertex 0.025 0.0495297 -0.009841
   vertex 0.025 0.0536089 -0.0143534
   vertex 0.025 0.0544336 -0.0108164
  endloop
 endfacet
 facet normal 1 -0 0
  outer loop
   vertex 0.025 0.0495297 -0.009841
   vertex 0.025 0.0544336 -0.0108164
   vertex 0.025 0.050068 -0.0065805
  endloop
 endfacet
 facet normal 1 0 0
  outer loop
   vertex 0.025 0.050068 -0.0065805
   vertex 0.025 0.0544336 -0.0108164
   vertex 0.025 0.0550252 -0.0072331
  endloop
 endfacet
 facet normal 1 -0 0
  outer loop
   vertex 0.025 0.050068 -0.0065805
   vertex 0.025 0.0550252 -0.0072331
   vertex 0.025 0.0503919 -0.0032918
  endloop
 endfacet
 facet normal 1 0 0
  outer loop
   vertex 0.025 0.0503919 -0.0032918
   vertex 0.025 0.0550252 -0.0072331
   vertex 0.025 0.0553812 -0.0036188
  endloop
 endfacet
 facet normal 1 -0 0
  outer loop
   vertex 0.025 0.0503919 -0.0032918
   vertex 0.025 0.0553812 -0.0036188
   vertex 0.025 0.0505 1.11e-05
  endloop
 endfacet
 facet normal 1 -0 0
  outer loop
   vertex 0.025 0.0505 1.11e-05
   vertex 0.025 0.0553812 -0.0036188
   vertex 0.025 0.0555 1.11e-05
  endloop
 endfacet
 facet normal 1 0 -0
  outer loop
   vertex 0.025 0.0505 1.11e-05
   vertex 0.025 0.0555 1.11e-05
   vertex 0.025 0.0503919 0.0033139
  endloop
 endfacet
 facet normal 1 -0 0
  outer loop
   vertex 0.025 0.0503919 0.0033139
   vertex 0.025 0.0555 1.11e-05
   vertex 0.025 0.0553812 0.0036409
  endloop
 endfacet
 facet normal 1 0 -0
  outer loop
   vertex 0.025 0.0503919 0.0033139
   vertex 0.025 0.0553812 0.0036409
   vertex 0.025 0.050068 0.0066026
  endloop
 endfacet
 facet normal 1 -0 0
  outer loop
   vertex 0.025 0.050068 0.0066026
   vertex 0.025 0.0553812 0.0036409
   vertex 0.025 0.0550252 0.0072553
  endloop
 endfacet
 facet normal 1 0 -0
  outer loop
   vertex 0.025 0.050068 0.0066026
   vertex 0.025 0.0550252 0.0072553
   vertex 0.025 0.0495297 0.0098631
  endloop
 endfacet
 facet normal 1 -0 0
  outer loop
   vertex 0.025 0.0495297 0.0098631
   vertex 0.025 0.0550252 0.0072553
   vertex 0.025 0.0544336 0.0108386
  endloop
 endfacet
 facet normal 1 0 -0
  outer loop
   vertex 0.025 0.0495297 0.0098631
   vertex 0.025 0.0544336 0.0108386
   vertex 0.025 0.0487792 0.0130814
  endloop
 endfacet
 facet normal 1 -0 0
  outer loop
   vertex 0.025 0.0487792 0.0130814
   vertex 0.025 0.0544336 0.0108386
   vertex 0.025 0.0536089 0.0143755
  endloop
 endfacet
 facet normal 1 0 -0
  outer loop
   vertex 0.025 0.0487792 0.0130814
   vertex 0.025 0.0536089 0.0143755
   vertex 0.025 0.04782 0.0162438
  endloop
 endfacet
 facet normal 1 -0 0
  outer loop
   vertex 0.025 0.04782 0.0162438
   vertex 0.025 0.0536089 0.0143755
   vertex 0.025 0.0525546 0.017851
  endloop
 endfacet
 facet normal 1 0 -0
  outer loop
   vertex 0.025 0.04782 0.0162438
   vertex 0.025 0.0525546 0.017851
   vertex 0.025 0.0466559 0.0193366
  endloop
 endfacet
 facet normal 1 -0 0
  outer loop
   vertex 0.025 0.0466559 0.0193366
   vertex 0.025 0.0525546 0.017851
   vertex 0.025 0.0512753 0.02125
  endloop
 endfacet
 facet normal -1 0 0
  outer loop
   vertex -0.025 0.0466559 0.0193366
   vertex -0.025 0.0512753 0.02125
   vertex -0.025 0.04782 0.0162438
  endloop
 endfacet
 facet normal -1 0 0
  outer loop
   vertex -0.025 0.04782 0.0162438
   vertex -0.025 0.0512753 0.02125
   vertex -0.025 0.0525546 0.017851
  endloop
 endfacet
 facet normal -1 0 0
  outer loop
   vertex -0.025 0.04782 0.0162438
   vertex -0.025 0.0525546 0.017851
   vertex -0.025 0.0487792 0.0130814
  endloop
 endfacet
 facet normal -1 0 0
  outer loop
   vertex -0.025 0.0487792 0.0130814
   vertex -0.025 0.0525546 0.017851
   vertex -0.025 0.0536089 0.0143755
  endloop
 endfacet
 facet normal -1 0 0
  outer loop
   vertex -0.025 0.0487792 0.0130814
   vertex -0.025 0.0536089 0.0143755
   vertex -0.025 0.0495297 0.0098631
  endloop
 endfacet
 facet normal -1 0 0
  outer loop
   vertex -0.025 0.0495297 0.0098631
   vertex -0.025 0.0536089 0.0143755
   vertex -0.025 0.0544336 0.0108386
  endloop
 endfacet
 facet normal -1 0 0
  outer loop
   vertex -0.025 0.0495297 0.0098631
   vertex -0.025 0.0544336 0.0108386
   vertex -0.025 0.050068 0.0066026
  endloop
 endfacet
 facet normal -1 0 0
  outer loop
   vertex -0.025 0.050068 0.0066026
   vertex -0.025 0.0544336 0.0108386
   vertex -0.025 0.0550252 0.0072553
  endloop
 endfacet
 facet normal -1 0 0
  outer loop
   vertex -0.025 0.050068 0.0066026
   vertex -0.025 0.0550252 0.0072553
   vertex -0.025 0.0503919 0.0033139
  endloop
 endfacet
 facet normal -1 0 0
  outer loop
   vertex -0.025 0.0503919 0.0033139
   vertex -0.025 0.0550252 0.0072553
   vertex -0.025 0.0553812 0.0036409
  endloop
 endfacet
 facet normal -1 0 0
  outer loop
   vertex -0.025 0.0503919 0.0033139
   vertex -0.025 0.0553812 0.0036409
   vertex -0.025 0.0505 1.11e-05
  endloop
 endfacet
 facet normal -1 0 0
  outer loop
   vertex -0.025 0.0505 1.11e-05
   vertex -0.025 0.0553812 0.0036409
   vertex -0.025 0.0555 1.11e-05
  endloop
 endfacet
 facet normal -1 0 -0
  outer loop
   vertex -0.025 0.0505 1.11e-05
   vertex -0.025 0.0555 1.11e-05
   vertex -0.025 0.0503919 -0.0032918
  endloop
 endfacet
 facet normal -1 0 0
  outer loop
   vertex -0.025 0.0503919 -0.0032918
   vertex -0.025 0.0555 1.11e-05
   vertex -0.025 0.0553812 -0.0036188
  endloop
 endfacet
 facet normal -1 0 -0
  outer loop
   vertex -0.025 0.0503919 -0.0032918
   vertex -0.025 0.0553812 -0.0036188
   vertex -0.025 0.050068 -0.0065805
  endloop
 endfacet
 facet normal -1 0 0
  outer loop
   vertex -0.025 0.050068 -0.0065805
   vertex -0.025 0.0553812 -0.0036188
   vertex -0.025 0.0550252 -0.0072331
  endloop
 endfacet
 facet normal -1 0 -0
  outer loop
   vertex -0.025 0.050068 -0.0065805
   vertex -0.025 0.0550252 -0.0072331
   vertex -0.025 0.0495297 -0.009841
  endloop
 endfacet
 facet normal -1 0 0
  outer loop
   vertex -0.025 0.0495297 -0.009841
   vertex -0.025 0.0550252 -0.0072331
   vertex -0.025 0.0544336 -0.0108164
  endloop
 endfacet
 facet normal -1 0 -0
  outer loop
   vertex -0.025 0.0495297 -0.009841
   vertex -0.025 0.0544336 -0.0108164
   vertex -0.025 0.0487792 -0.0130593
  endloop
 endfacet
 facet normal -1 0 0
  outer loop
   vertex -0.025 0.0487792 -0.0130593
   vertex -0.025 0.0544336 -0.0108164
   vertex -0.025 0.0536089 -0.0143534
  endloop
 endfacet
 facet normal -1 0 -0
  outer loop
   vertex -0.025 0.0487792 -0.0130593
   vertex -0.025 0.0536089 -0.0143534
   vertex -0.025 0.04782 -0.0162216
  endloop
 endfacet
 facet normal -1 0 0
  outer loop
   vertex -0.025 0.04782 -0.0162216
   vertex -0.025 0.0536089 -0.0143534
   vertex -0.025 0.0525546 -0.0178288
  endloop
 endfacet
 facet normal -1 0 -0
  outer loop
   vertex -0.025 0.04782 -0.0162216
   vertex -0.025 0.0525546 -0.0178288
   vertex -0.025 0.0466559 -0.0193144
  endloop
 endfacet
 facet normal -1 0 0
  outer loop
   vertex -0.025 0.0466559 -0.0193144
   vertex -0.025 0.0525546 -0.0178288
   vertex -0.025 0.0512753 -0.0212279
  endloop
 endfacet
endsolid 45degPipe
