v -0.004999999888 0.004999999888 0.009999999776
v -0.004999999888 1.117589979e-10 0.009999999776
l 1 2
v -0.004999999888 1.117589979e-10 0.009999999776
v 0.004999999888 1.117589979e-10 0.009999999776
l 3 4
v 0.004999999888 1.117589979e-10 0.009999999776
v 0.004999999888 0.004999999888 0.009999999776
l 5 6
v 0.004999999888 0.004999999888 0.009999999776
v -0.004999999888 0.004999999888 0.009999999776
l 7 8
v -0.004999999888 0.004999999888 -0.009999999776
v -0.004999999888 1.117589979e-10 -0.009999999776
l 9 10
v -0.004999999888 1.117589979e-10 -0.009999999776
v -0.004999999888 1.117589979e-10 0.009999999776
l 11 12
v -0.004999999888 0.004999999888 0.009999999776
v -0.004999999888 0.004999999888 -0.009999999776
l 13 14
v 0.004999999888 0.004999999888 -0.009999999776
v 0.004999999888 1.117589979e-10 -0.009999999776
l 15 16
v 0.004999999888 1.117589979e-10 -0.009999999776
v -0.004999999888 1.117589979e-10 -0.009999999776
l 17 18
v -0.004999999888 0.004999999888 -0.009999999776
v 0.004999999888 0.004999999888 -0.009999999776
l 19 20
v 0.004999999888 1.117589979e-10 0.009999999776
v 0.004999999888 1.117589979e-10 -0.009999999776
l 21 22
v 0.004999999888 0.004999999888 -0.009999999776
v 0.004999999888 0.004999999888 0.009999999776
l 23 24
v -0.0002500000119 1.117589979e-10 0.002499999944
v 0.0002500000119 1.117589979e-10 0.002499999944
l 25 26
v -0.0002500000119 1.117589979e-10 -0.002499999944
v -0.0002500000119 1.117589979e-10 0.002499999944
l 27 28
v 0.0002500000119 1.117589979e-10 -0.002499999944
v -0.0002500000119 1.117589979e-10 -0.002499999944
l 29 30
v 0.0002500000119 1.117589979e-10 0.002499999944
v 0.0002500000119 1.117589979e-10 -0.002499999944
l 31 32
