# Wavefront OBJ file written 2026-02-18T16:06:13
o crack_edgeMesh

# points : 14
# lines  : 21

# <points count="14">
v -0.004999999888 1.117589979e-10 0.009999999776
v 0.004999999888 1.117589979e-10 0.009999999776
v -0.004999999888 0.004999999888 0.009999999776
v 0.004999999888 0.004999999888 0.009999999776
v -0.004999999888 1.117589979e-10 -0.009999999776
v -0.004999999888 0.004999999888 -0.009999999776
v 0.004999999888 1.117589979e-10 -0.009999999776
v 0.004999999888 0.004999999888 -0.009999999776
v -1.117589979e-10 0.001000000047 -0.002499999944
v -1.117589979e-10 0.001000000047 0.002499999944
v 0.0002500000119 1.117589979e-10 0.002499999944
v -0.0002500000119 1.117589979e-10 0.002499999944
v -0.0002500000119 1.117589979e-10 -0.002499999944
v 0.0002500000119 1.117589979e-10 -0.002499999944
# </points>

# <edges count="21">
l 3 1
l 1 2
l 2 4
l 4 3
l 6 5
l 5 1
l 3 6
l 8 7
l 7 5
l 6 8
l 2 7
l 8 4
l 12 11
l 13 12
l 14 13
l 11 14
l 10 9
l 9 14
l 11 10
l 13 9
l 10 12
# </edges>
