v -0.0002500000119 1.117589979e-10 0.002499999944
v 0.0002500000119 1.117589979e-10 0.002499999944
l 1 2
v 0.0002500000119 1.117589979e-10 0.002499999944
v 0.0002500000119 1.117589979e-10 -0.002499999944
l 3 4
v 0.0002500000119 1.117589979e-10 0.002499999944
v -1.117589979e-10 0.001000000047 0.002499999944
l 5 6
v -0.0002500000119 1.117589979e-10 0.002499999944
v 0.0002500000119 1.117589979e-10 0.002499999944
l 7 8
v -0.0002500000119 1.117589979e-10 -0.002499999944
v -0.0002500000119 1.117589979e-10 0.002499999944
l 9 10
v -1.117589979e-10 0.001000000047 0.002499999944
v -0.0002500000119 1.117589979e-10 0.002499999944
l 11 12
v -0.0002500000119 1.117589979e-10 -0.002499999944
v -0.0002500000119 1.117589979e-10 0.002499999944
l 13 14
v 0.0002500000119 1.117589979e-10 -0.002499999944
v -0.0002500000119 1.117589979e-10 -0.002499999944
l 15 16
v -0.0002500000119 1.117589979e-10 -0.002499999944
v -1.117589979e-10 0.001000000047 -0.002499999944
l 17 18
v 0.0002500000119 1.117589979e-10 -0.002499999944
v -0.0002500000119 1.117589979e-10 -0.002499999944
l 19 20
v 0.0002500000119 1.117589979e-10 0.002499999944
v 0.0002500000119 1.117589979e-10 -0.002499999944
l 21 22
v -1.117589979e-10 0.001000000047 -0.002499999944
v 0.0002500000119 1.117589979e-10 -0.002499999944
l 23 24
