v -0.004999999888 0.004999999888 0.009999999776
v -0.004999999888 -0.9950000001 0.009999999776
l 1 2
v -0.004999999888 1.117589979e-10 0.009999999776
v 0.9950000001 1.117589979e-10 0.009999999776
l 3 4
v 0.004999999888 1.117589979e-10 0.009999999776
v 0.004999999888 1 0.009999999776
l 5 6
v 0.004999999888 0.004999999888 0.009999999776
v -0.9950000001 0.004999999888 0.009999999776
l 7 8
v -0.004999999888 0.004999999888 -0.009999999776
v -0.004999999888 -0.9950000001 -0.009999999776
l 9 10
v -0.004999999888 1.117589979e-10 -0.009999999776
v -0.004999999888 1.117589979e-10 0.9900000002
l 11 12
v -0.004999999888 0.004999999888 0.009999999776
v -0.004999999888 0.004999999888 -0.9900000002
l 13 14
v 0.004999999888 0.004999999888 -0.009999999776
v 0.004999999888 -0.9950000001 -0.009999999776
l 15 16
v 0.004999999888 1.117589979e-10 -0.009999999776
v -0.9950000001 1.117589979e-10 -0.009999999776
l 17 18
v -0.004999999888 0.004999999888 -0.009999999776
v 0.9950000001 0.004999999888 -0.009999999776
l 19 20
v 0.004999999888 1.117589979e-10 0.009999999776
v 0.004999999888 1.117589979e-10 -0.9900000002
l 21 22
v 0.004999999888 0.004999999888 -0.009999999776
v 0.004999999888 0.004999999888 0.9900000002
l 23 24
v -0.0002500000119 1.117589979e-10 0.002499999944
v 0.99975 1.117589979e-10 0.002499999944
l 25 26
v -0.0002500000119 1.117589979e-10 -0.002499999944
v -0.0002500000119 1.117589979e-10 0.9975000001
l 27 28
v 0.0002500000119 1.117589979e-10 -0.002499999944
v -0.99975 1.117589979e-10 -0.002499999944
l 29 30
v 0.0002500000119 1.117589979e-10 0.002499999944
v 0.0002500000119 1.117589979e-10 -0.9975000001
l 31 32
v -1.117589979e-10 0.001000000047 0.002499999944
v -1.117589979e-10 0.001000000047 -0.9975000001
l 33 34
v -1.117589979e-10 0.001000000047 -0.002499999944
v 0.2425357525 -0.9691424682 -0.002499999944
l 35 36
v 0.0002500000119 1.117589979e-10 0.002499999944
v -0.2422857526 0.9701424684 0.002499999944
l 37 38
v -0.0002500000119 1.117589979e-10 -0.002499999944
v 0.2422855485 0.9701425194 -0.002499999944
l 39 40
v -1.117589979e-10 0.001000000047 0.002499999944
v -0.2425355486 -0.9691425192 0.002499999944
l 41 42
