v -1.117589979e-10 0.001000000047 0.002499999944
v -1.117589979e-10 0.001000000047 -0.002499999944
l 1 2
v -1.117589979e-10 0.001000000047 -0.002499999944
v 0.0002500000119 1.117589979e-10 -0.002499999944
l 3 4
v 0.0002500000119 1.117589979e-10 0.002499999944
v -1.117589979e-10 0.001000000047 0.002499999944
l 5 6
v -0.0002500000119 1.117589979e-10 -0.002499999944
v -1.117589979e-10 0.001000000047 -0.002499999944
l 7 8
v -1.117589979e-10 0.001000000047 0.002499999944
v -0.0002500000119 1.117589979e-10 0.002499999944
l 9 10
